# xmcd
#
# Track frame offsets:
#       150
#       14986
#       23931
#       33186
#       48441
#       57974
#       72802
#       84377
#       90743
#       109815
#       131307
#       144939
#       159424
#       169359
#       180478
#       196150
#
# Disc length: 2762 seconds
#
# Revision: 0
# Processed by: cddbd v1.5.1PL0 Copyright (c) Steve Scherf et al.
# Submitted via: WaveLab 4.01
#
DISCID=d00ac810
DTITLE=Willie Salomon - Country Blues and More
DYEAR=2004
DGENRE=
TTITLE0=Louise
TTITLE1=The Viper Song
TTITLE2=Great Dreams From Heaven
TTITLE3=Motherless Children
TTITLE4=In The Jailhouse Now
TTITLE5=I'm Going To Sit Down On The Banks Of The River
TTITLE6=Built Right On The Ground
TTITLE7=Struttin'
TTITLE8=May You Never
TTITLE9=Hard Time Killing Floor
TTITLE10=I Got The Move
TTITLE11=Willie's Lonesome Blues
TTITLE12=Don't Sell It, Don't Give Away
TTITLE13=What's The Use?
TTITLE14=Divin' Duck Blues
TTITLE15=Money Is King
EXTD=
EXTT0=
EXTT1=
EXTT2=
EXTT3=
EXTT4=
EXTT5=
EXTT6=
EXTT7=
EXTT8=
EXTT9=
EXTT10=
EXTT11=
EXTT12=
EXTT13=
EXTT14=
EXTT15=
PLAYORDER=
